<svg width="146" height="211" viewBox="0 0 146 211" fill="none" xmlns="http://www.w3.org/2000/svg">
<mask id="mask0_18_2" style="mask-type:luminance" maskUnits="userSpaceOnUse" x="0" y="0" width="146" height="211">
<path d="M144.7 0.5V209.98H0.5V0.5H144.7Z" fill="white" stroke="white"/>
</mask>
<g mask="url(#mask0_18_2)">
<mask id="path-2-inside-1_18_2" fill="white">
<path d="M32.0511 173L1.29527 60.5215H15.1354L38.6416 152.13H39.7401L63.6857 60.5215H79.0636L103.009 152.13H104.108L127.614 60.5215H141.454L110.698 173H96.6383L71.814 83.3687H70.9353L46.1109 173H32.0511Z"/>
</mask>
<path d="M32.0511 173L1.29527 60.5215H15.1354L38.6416 152.13H39.7401L63.6857 60.5215H79.0636L103.009 152.13H104.108L127.614 60.5215H141.454L110.698 173H96.6383L71.814 83.3687H70.9353L46.1109 173H32.0511Z" fill="#020023"/>
<path d="M32.0511 173L31.0865 173.264L31.2878 174H32.0511V173ZM1.29527 60.5215V59.5215H-0.0148803L0.330678 60.7853L1.29527 60.5215ZM15.1354 60.5215L16.104 60.273L15.9112 59.5215H15.1354V60.5215ZM38.6416 152.13L37.673 152.379L37.8658 153.13H38.6416V152.13ZM39.7401 152.13V153.13H40.5123L40.7075 152.383L39.7401 152.13ZM63.6857 60.5215V59.5215H62.9135L62.7182 60.2686L63.6857 60.5215ZM79.0636 60.5215L80.0311 60.2686L79.8358 59.5215H79.0636V60.5215ZM103.009 152.13L102.042 152.383L102.237 153.13H103.009V152.13ZM104.108 152.13V153.13H104.883L105.076 152.379L104.108 152.13ZM127.614 60.5215V59.5215H126.838L126.645 60.273L127.614 60.5215ZM141.454 60.5215L142.419 60.7853L142.764 59.5215H141.454V60.5215ZM110.698 173V174H111.461L111.663 173.264L110.698 173ZM96.6383 173L95.6746 173.267L95.8777 174H96.6383V173ZM71.814 83.3687L72.7777 83.1018L72.5747 82.3687H71.814V83.3687ZM70.9353 83.3687V82.3687H70.1746L69.9715 83.1018L70.9353 83.3687ZM46.1109 173V174H46.8716L47.0746 173.267L46.1109 173ZM32.0511 173L33.0157 172.736L2.25986 60.2578L1.29527 60.5215L0.330678 60.7853L31.0865 173.264L32.0511 173ZM1.29527 60.5215V61.5215H15.1354V60.5215V59.5215H1.29527V60.5215ZM15.1354 60.5215L14.1668 60.7701L37.673 152.379L38.6416 152.13L39.6103 151.881L16.104 60.273L15.1354 60.5215ZM38.6416 152.13V153.13H39.7401V152.13V151.13H38.6416V152.13ZM39.7401 152.13L40.7075 152.383L64.6532 60.7744L63.6857 60.5215L62.7182 60.2686L38.7726 151.877L39.7401 152.13ZM63.6857 60.5215V61.5215H79.0636V60.5215V59.5215H63.6857V60.5215ZM79.0636 60.5215L78.0961 60.7744L102.042 152.383L103.009 152.13L103.977 151.877L80.0311 60.2686L79.0636 60.5215ZM103.009 152.13V153.13H104.108V152.13V151.13H103.009V152.13ZM104.108 152.13L105.076 152.379L128.582 60.7701L127.614 60.5215L126.645 60.273L103.139 151.881L104.108 152.13ZM127.614 60.5215V61.5215H141.454V60.5215V59.5215H127.614V60.5215ZM141.454 60.5215L140.489 60.2578L109.734 172.736L110.698 173L111.663 173.264L142.419 60.7853L141.454 60.5215ZM110.698 173V172H96.6383V173V174H110.698V173ZM96.6383 173L97.6021 172.733L72.7777 83.1018L71.814 83.3687L70.8503 83.6356L95.6746 173.267L96.6383 173ZM71.814 83.3687V82.3687H70.9353V83.3687V84.3687H71.814V83.3687ZM70.9353 83.3687L69.9715 83.1018L45.1472 172.733L46.1109 173L47.0746 173.267L71.899 83.6356L70.9353 83.3687ZM46.1109 173V172H32.0511V173V174H46.1109V173Z" fill="#020023" mask="url(#path-2-inside-1_18_2)"/>
</g>
</svg>
