<svg width="146" height="211" viewBox="0 0 146 211" fill="none" xmlns="http://www.w3.org/2000/svg">
<mask id="mask0_6_56" style="mask-type:luminance" maskUnits="userSpaceOnUse" x="0" y="0" width="146" height="211">
<path d="M145.05 0.150391V210.33H0.150391V0.150391H145.05Z" fill="white" stroke="white" stroke-width="0.3"/>
</mask>
<g mask="url(#mask0_6_56)">
<mask id="path-2-inside-1_6_56" fill="white">
<path d="M32.0511 173L1.29527 60.5215H15.1354L38.6416 152.13H39.7401L63.6857 60.5215H79.0636L103.009 152.13H104.108L127.614 60.5215H141.454L110.698 173H96.6383L71.814 83.3687H70.9353L46.1109 173H32.0511Z"/>
</mask>
<path d="M32.0511 173L1.29527 60.5215H15.1354L38.6416 152.13H39.7401L63.6857 60.5215H79.0636L103.009 152.13H104.108L127.614 60.5215H141.454L110.698 173H96.6383L71.814 83.3687H70.9353L46.1109 173H32.0511Z" fill="#F7F6FE"/>
<path d="M32.0511 173L31.7617 173.079L31.8221 173.3H32.0511V173ZM1.29527 60.5215V60.2215H0.902223L1.00589 60.6007L1.29527 60.5215ZM15.1354 60.5215L15.426 60.447L15.3681 60.2215H15.1354V60.5215ZM38.6416 152.13L38.351 152.205L38.4089 152.43H38.6416V152.13ZM39.7401 152.13V152.43H39.9717L40.0303 152.206L39.7401 152.13ZM63.6857 60.5215V60.2215H63.454L63.3954 60.4457L63.6857 60.5215ZM79.0636 60.5215L79.3538 60.4457L79.2952 60.2215H79.0636V60.5215ZM103.009 152.13L102.719 152.206L102.778 152.43H103.009V152.13ZM104.108 152.13V152.43H104.34L104.398 152.205L104.108 152.13ZM127.614 60.5215V60.2215H127.381L127.323 60.447L127.614 60.5215ZM141.454 60.5215L141.743 60.6007L141.847 60.2215H141.454V60.5215ZM110.698 173V173.3H110.927L110.988 173.079L110.698 173ZM96.6383 173L96.3492 173.08L96.4101 173.3H96.6383V173ZM71.814 83.3687L72.1031 83.2886L72.0422 83.0687H71.814V83.3687ZM70.9353 83.3687V83.0687H70.7071L70.6461 83.2886L70.9353 83.3687ZM46.1109 173V173.3H46.3391L46.4 173.08L46.1109 173ZM32.0511 173L32.3405 172.921L1.58464 60.4424L1.29527 60.5215L1.00589 60.6007L31.7617 173.079L32.0511 173ZM1.29527 60.5215V60.8215H15.1354V60.5215V60.2215H1.29527V60.5215ZM15.1354 60.5215L14.8448 60.5961L38.351 152.205L38.6416 152.13L38.9322 152.055L15.426 60.447L15.1354 60.5215ZM38.6416 152.13V152.43H39.7401V152.13V151.83H38.6416V152.13ZM39.7401 152.13L40.0303 152.206L63.9759 60.5974L63.6857 60.5215L63.3954 60.4457L39.4498 152.054L39.7401 152.13ZM63.6857 60.5215V60.8215H79.0636V60.5215V60.2215H63.6857V60.5215ZM79.0636 60.5215L78.7733 60.5974L102.719 152.206L103.009 152.13L103.299 152.054L79.3538 60.4457L79.0636 60.5215ZM103.009 152.13V152.43H104.108V152.13V151.83H103.009V152.13ZM104.108 152.13L104.398 152.205L127.904 60.5961L127.614 60.5215L127.323 60.447L103.817 152.055L104.108 152.13ZM127.614 60.5215V60.8215H141.454V60.5215V60.2215H127.614V60.5215ZM141.454 60.5215L141.165 60.4424L110.409 172.921L110.698 173L110.988 173.079L141.743 60.6007L141.454 60.5215ZM110.698 173V172.7H96.6383V173V173.3H110.698V173ZM96.6383 173L96.9275 172.92L72.1031 83.2886L71.814 83.3687L71.5249 83.4488L96.3492 173.08L96.6383 173ZM71.814 83.3687V83.0687H70.9353V83.3687V83.6687H71.814V83.3687ZM70.9353 83.3687L70.6461 83.2886L45.8218 172.92L46.1109 173L46.4 173.08L71.2244 83.4488L70.9353 83.3687ZM46.1109 173V172.7H32.0511V173V173.3H46.1109V173Z" fill="#B9B7C6" mask="url(#path-2-inside-1_6_56)"/>
</g>
</svg>
